
<svg xmlns="http://www.w3.org/2000/svg" width="40" height="40" viewBox="0 0 40 40" fill="none">
  <rect width="40" height="40" rx="8" fill="#2E7D32"/>
  <path d="M20 8C13.373 8 8 13.373 8 20C8 26.627 13.373 32 20 32C26.627 32 32 26.627 32 20C32 13.373 26.627 8 20 8ZM20 12C21.105 12 22 12.895 22 14C22 15.105 21.105 16 20 16C18.895 16 18 15.105 18 14C18 12.895 18.895 12 20 12ZM25.535 23.071C24.586 25.407 22.447 27 20 27C17.553 27 15.414 25.407 14.465 23.071C14.129 22.301 14.528 21.431 15.298 21.094C16.068 20.758 16.938 21.157 17.274 21.927C17.782 23.092 18.834 23.875 20 23.875C21.166 23.875 22.218 23.092 22.726 21.927C23.062 21.157 23.932 20.758 24.702 21.094C25.472 21.431 25.871 22.301 25.535 23.071ZM28 15H22.867C22.293 15 21.909 14.379 22.138 13.854L24.271 9.589C24.5 9.064 25.136 8.839 25.661 9.067L29.927 11.2C30.452 11.429 30.676 12.064 30.448 12.589L28.448 16.589C28.219 17.114 27.584 17.339 27.059 17.11C26.534 16.881 26.309 16.246 26.538 15.721L27.75 13.296L25.325 12.083L24.112 14.507C23.883 15.032 23.248 15.256 22.723 15.028C22.198 14.799 21.973 14.164 22.202 13.639L23.414 11.214L21.951 10.427C21.837 10.368 21.703 10.372 21.593 10.438C21.484 10.503 21.412 10.621 21.407 10.75H22C22.552 10.75 23 11.199 23 11.75C23 12.301 22.552 12.75 22 12.75H20C19.448 12.75 19 12.301 19 11.75C19 10.788 19.478 9.895 20.259 9.318C21.05 8.733 22.046 8.555 22.975 8.832L25.05 9.916L26.304 7.407C26.533 6.882 27.168 6.658 27.693 6.886C28.218 7.115 28.443 7.751 28.214 8.275L27.051 10.666L28.339 11.309L29.661 8.691C29.891 8.166 30.526 7.941 31.051 8.17C31.576 8.399 31.8 9.034 31.571 9.559L30.089 12.5H31C31.552 12.5 32 12.948 32 13.5C32 14.052 31.552 14.5 31 14.5H28C27.448 14.5 27 14.052 27 13.5C27 12.948 27.448 12.5 28 12.5V15Z" fill="white"/>
</svg>
